<?xml version="1.0" encoding="UTF-8" standalone="no"?>
<!DOCTYPE svg PUBLIC "-//W3C//DTD SVG 1.1//EN" "http://www.w3.org/Graphics/SVG/1.1/DTD/svg11.dtd">
<svg width="100%" height="100%" viewBox="0 0 1000 1000" version="1.1" xmlns="http://www.w3.org/2000/svg" xmlns:xlink="http://www.w3.org/1999/xlink" xml:space="preserve" xmlns:serif="http://www.serif.com/" style="fill-rule:evenodd;clip-rule:evenodd;stroke-linejoin:round;stroke-miterlimit:2;">
    <g transform="matrix(1,0,0,1,0,33)">
        <g transform="matrix(1.270538,0,0,1.270538,-35.906789,-100.976313)">
            <path d="M540.949,347.168C560.298,345.826 583.224,346.243 607.572,350.844C693.285,367.042 726.585,423.762 701.176,468.712C693.916,481.556 673.794,491.593 673.794,491.593L446.175,578.059C446.175,578.059 435.237,581.565 427.688,590.243C419.861,599.24 419.373,612.469 419.373,612.469L417.629,679.192L226.188,518.177L226.676,489.246L134.101,411.384L134.685,376.756C134.685,376.756 133.832,364.998 141.663,355.361C149.743,345.416 160.167,342.944 160.167,342.944L351,276C351,276 398.539,259.77 455.239,270.485C513.567,281.507 543.07,314.816 540.949,347.168ZM438.161,556.55L438.023,556.599L665.01,470.372C668.556,468.652 677.584,463.798 681.192,457.415C689.384,442.923 687.704,426.565 677.476,412.493C664.272,394.329 638.98,380.142 603.309,373.401C581.1,369.204 560.187,368.845 542.538,370.069C535.928,370.528 529.442,368.108 524.748,363.432C520.054,358.755 517.609,352.278 518.042,345.667C518.696,335.701 513.783,325.902 504.911,317.432C493.105,306.161 474.883,297.56 450.976,293.042C401.62,283.715 360.071,297.179 358.462,297.71L167.766,364.606C167.212,364.801 166.652,364.973 166.085,365.125C165.729,365.272 161.852,366.916 159.479,369.837C157.763,371.95 157.624,375.327 157.614,375.654C157.638,376.15 157.646,376.646 157.638,377.143L157.238,400.848L241.452,471.678C246.742,476.127 249.745,482.722 249.629,489.633L249.325,507.64L395.926,630.942L396.424,611.869L396.432,611.622C396.432,611.622 397.499,589.97 410.368,575.177C420.423,563.618 434.339,557.95 438.161,556.55Z" style="fill:rgb(255,181,181);"/>
        </g>
        <g transform="matrix(1.508894,0,0,1.508894,49.12936,-63.348489)">
            <path d="M351,276C351,276 398.539,259.77 455.239,270.485C527.412,284.124 555.452,331.884 534.057,369.733C527.943,380.549 511,389 511,389L319.337,461.807C319.337,461.807 310.127,464.76 303.771,472.067C297.18,479.643 296.769,490.782 296.769,490.782L295.301,546.965L134.101,411.384L134.685,376.756C134.685,376.756 133.832,364.998 141.663,355.361C149.743,345.416 160.167,342.944 160.167,342.944L351,276ZM312.589,443.696L312.473,443.737L503.604,371.132C506.59,369.683 514.191,365.596 517.229,360.221C524.127,348.018 522.713,334.245 514.1,322.395C502.983,307.1 481.685,295.155 451.649,289.479C401.241,279.953 358.818,293.772 357.288,294.279L357.286,294.28L166.565,361.185C165.93,361.408 165.282,361.597 164.627,361.753C164.627,361.753 160.236,363.155 156.665,367.55C153.79,371.088 153.964,375.359 153.964,375.359C154.006,375.932 154.022,376.507 154.012,377.082L153.583,402.512L277.026,506.336L277.446,490.277L277.452,490.068C277.452,490.068 278.351,471.837 289.187,459.38C297.653,449.647 309.371,444.875 312.589,443.696Z" style="fill:rgb(255,181,181);"/>
        </g>
    </g>
</svg>
